<svg version="1.1" id="Layer_1" xmlns="http://www.w3.org/2000/svg" xmlns:xlink="http://www.w3.org/1999/xlink" x="0px" y="0px"
	 width="100%" viewBox="0 0 1080 1080" enable-background="new 0 0 1080 1080" xml:space="preserve">
<path fill="#FFFFFF" opacity="1.000000" stroke="none" 
	d="
M601.000000,1081.000000 
	C400.689728,1081.000000 200.879456,1081.000000 1.034590,1081.000000 
	C1.034590,721.064575 1.034590,361.129211 1.034590,1.096903 
	C360.893829,1.096903 720.787659,1.096903 1080.840820,1.096903 
	C1080.840820,360.999939 1080.840820,720.999939 1080.840820,1081.000000 
	C921.128723,1081.000000 761.314392,1081.000000 601.000000,1081.000000 
M188.665192,512.208191 
	C189.131546,515.818848 189.590897,519.430481 190.065460,523.040039 
	C192.198837,539.266296 200.781769,549.984985 216.697968,554.709229 
	C227.563049,557.934204 238.607864,557.911011 249.799683,557.937012 
	C257.130890,557.954041 260.736755,553.266235 265.043732,549.060303 
	C265.613861,548.503540 265.718903,547.178467 265.606018,546.262634 
	C264.976868,541.157593 257.954895,535.482666 252.752731,535.030823 
	C240.374451,533.955566 228.005569,532.701050 215.676788,531.166382 
	C211.510544,530.647766 208.886917,526.723145 209.869263,522.901611 
	C210.592194,520.089233 211.809845,517.128906 213.637863,514.922974 
	C221.874985,504.983154 233.304779,499.412079 244.436127,493.620544 
	C248.802124,491.348969 253.871063,490.452118 258.574188,488.799225 
	C265.127258,486.496124 270.156342,480.160736 268.693451,474.575684 
	C267.837677,471.308533 264.827240,468.485443 262.441650,465.764679 
	C257.620544,460.266144 252.166275,459.594269 245.726517,463.219666 
	C236.761566,468.266632 227.435104,472.752625 218.862000,478.389252 
	C211.763336,483.056458 205.247467,488.738007 199.019943,494.555267 
	C195.152725,498.167725 192.304733,502.871277 188.425995,506.701965 
	C184.533844,504.084412 180.641708,501.466858 176.309692,498.553497 
	C168.828903,499.592651 168.579178,499.527161 167.026459,491.203125 
	C164.866241,479.622406 162.715271,468.032593 160.962204,456.386200 
	C160.019806,450.125397 157.767334,445.786896 150.857147,444.825958 
	C147.775269,444.397400 144.649155,443.362366 141.866730,441.960327 
	C138.982529,440.507080 137.663177,441.655487 136.180603,443.829102 
	C134.027420,446.985870 132.091919,450.468842 129.307022,452.970398 
	C126.089363,455.860626 122.290459,459.143402 118.306488,459.875580 
	C113.415558,460.774475 109.879242,462.160400 107.724205,466.646576 
	C101.265419,480.091827 94.734558,493.502655 88.323753,506.970673 
	C84.461113,515.085327 80.800323,523.295837 76.990929,531.436157 
	C74.215744,537.366516 72.264717,543.043945 75.708282,549.698853 
	C78.119522,554.358704 82.782715,559.173523 86.827896,558.843018 
	C93.219475,558.320801 100.042686,552.525146 100.918640,547.076782 
	C102.420616,537.734497 106.796982,529.699463 112.314392,521.809021 
	C116.436394,533.058533 117.237915,533.705994 126.989998,533.014771 
	C130.939896,532.734863 134.837189,531.753357 138.768311,531.156250 
	C142.615356,530.571960 146.474991,530.070618 150.457993,529.514832 
	C152.372406,539.773682 143.832779,538.882996 139.120865,541.764038 
	C140.471298,546.808044 147.477280,548.626221 146.070557,554.846069 
	C146.029541,555.027466 146.852295,555.379761 147.244827,555.687439 
	C152.442032,559.760681 157.701584,560.162598 163.429962,556.915710 
	C175.164932,550.264282 179.439316,540.681580 176.502640,526.676636 
	C175.851395,523.570801 176.396561,521.969788 179.037399,520.091125 
	C182.362885,517.725281 185.055130,514.469299 188.665192,512.208191 
M615.081543,534.579712 
	C616.575134,531.914490 619.423157,529.196655 619.322021,526.593384 
	C618.936035,516.662537 614.245850,508.690796 606.254272,502.614777 
	C602.497375,499.758331 599.067139,496.472137 595.118652,493.060883 
	C599.702576,488.172211 603.810608,484.062286 607.601196,479.677887 
	C612.053894,474.527740 615.590027,468.533752 614.233765,461.603546 
	C612.713440,453.835632 606.605286,449.057220 600.279236,444.910828 
	C597.134705,442.849731 593.933044,439.853729 590.505127,439.456543 
	C583.022949,438.589691 575.224182,438.123047 567.834656,439.280243 
	C552.977173,441.606873 538.175415,444.619873 523.617371,448.381805 
	C516.769775,450.151306 510.458221,454.179443 508.723694,462.329803 
	C508.509888,463.334534 507.300140,464.111237 506.601532,465.031311 
	C498.774811,475.338287 490.832123,485.560699 483.192719,496.004883 
	C479.518036,501.028687 476.420593,506.474731 472.310699,512.904602 
	C471.677551,509.721405 471.171844,508.006256 471.019928,506.260315 
	C470.558929,500.963470 470.076385,495.660248 469.890717,490.349426 
	C469.514923,479.601807 463.673645,471.360382 457.568512,463.292999 
	C456.520111,461.907623 453.472168,460.259491 452.694275,460.772827 
	C450.195160,462.422089 448.100220,464.864624 446.323944,467.341492 
	C445.590179,468.364655 445.936035,470.258392 446.006989,471.745850 
	C446.331482,478.548737 447.221100,485.363647 447.003510,492.145203 
	C446.563263,505.867767 448.783600,519.270691 451.417603,532.582581 
	C452.949432,540.324219 454.392639,548.308960 459.662292,554.824097 
	C462.765564,558.660828 466.633392,560.186462 471.138245,558.586609 
	C475.861603,556.909241 478.528656,553.232178 479.007202,548.052979 
	C479.168182,546.310974 479.501251,544.386047 480.398651,542.945129 
	C484.495789,536.365967 488.720337,529.860046 493.089417,523.457764 
	C499.352386,514.280212 505.669983,505.135376 512.180603,496.133087 
	C516.031250,490.808807 520.298584,485.785950 524.758301,480.147400 
	C528.652710,480.460419 533.868835,481.745667 535.949524,475.114716 
	C536.145508,474.490295 537.844238,474.337433 538.845276,473.965576 
	C539.049866,475.457458 539.772522,477.103912 539.380676,478.417877 
	C534.233704,495.674347 529.050537,512.922241 523.613098,530.088867 
	C520.933105,538.549866 520.907104,546.347412 526.495422,553.804810 
	C531.714661,560.769653 535.179138,561.451477 542.387451,556.621277 
	C543.334229,555.986877 545.573608,556.417847 546.748047,557.127319 
	C554.267090,561.669373 561.941162,560.379211 569.657715,558.041626 
	C572.795410,557.091125 575.825134,555.789246 578.947327,554.781433 
	C592.122253,550.528564 605.244629,546.200745 615.081543,534.579712 
M828.457031,537.236145 
	C829.983459,542.193420 831.446289,547.171387 833.051331,552.103088 
	C835.467285,559.526733 842.416687,561.497253 848.044922,556.162476 
	C850.671631,553.672729 852.763550,550.601929 854.992859,547.713501 
	C858.745850,542.850830 862.386658,537.901733 866.128723,533.030457 
	C868.996094,529.297791 871.419800,529.456482 874.938721,532.940430 
	C886.769714,544.653992 900.676453,551.746216 917.933777,551.189514 
	C923.869019,550.997986 928.482605,548.958801 931.236511,544.026794 
	C932.800232,541.226562 934.471558,536.647827 933.240356,534.526733 
	C931.008362,530.681641 927.754761,526.614319 921.803406,527.096436 
	C916.342834,527.538818 910.794006,527.460449 905.323242,527.066895 
	C898.270203,526.559387 891.910034,524.119751 888.091492,517.695007 
	C887.386597,516.509033 887.693787,513.541931 888.655457,512.737061 
	C894.757874,507.629395 901.073303,502.757355 907.521484,498.087860 
	C912.633911,494.385559 918.467896,491.582062 923.203552,487.481110 
	C929.492004,482.035431 931.355835,476.641418 923.876526,472.349457 
	C921.473633,470.970581 919.688599,468.528259 917.306641,467.094757 
	C915.902588,466.249725 913.385254,465.592438 912.217773,466.284119 
	C904.139465,471.069977 896.139099,476.021179 888.401733,481.338318 
	C881.668335,485.965515 875.313049,491.142792 868.790649,496.076996 
	C868.319641,495.690765 867.848633,495.304535 867.377625,494.918274 
	C868.979065,491.765411 870.336426,488.456909 872.228210,485.489105 
	C877.682617,476.932190 878.697021,471.835052 873.980652,467.079315 
	C871.017944,464.091980 866.495667,462.671936 862.726807,460.457397 
	C859.522095,458.574402 857.093872,459.933868 855.539856,462.561859 
	C852.417480,467.842255 848.864807,473.068298 846.907288,478.800781 
	C840.382996,497.907104 834.485657,517.227478 828.457031,537.236145 
M355.683197,546.082825 
	C356.183258,547.837402 356.737701,549.578674 357.173462,551.349060 
	C358.673828,557.444458 363.954193,560.167236 369.389801,557.197266 
	C371.530914,556.027344 373.528107,554.003601 374.750854,551.884094 
	C376.507599,548.838867 377.496338,545.350647 378.425629,543.022034 
	C386.069611,547.183960 393.130585,552.042114 400.913330,555.003052 
	C410.133453,558.510681 419.844025,561.381714 429.587585,562.667053 
	C438.336487,563.821167 443.180573,555.461426 439.885834,547.068542 
	C438.482788,543.494446 436.725311,541.229553 432.163940,540.698730 
	C424.785919,539.840027 417.478607,537.936951 410.305237,535.898560 
	C404.822601,534.340698 399.904694,531.419617 394.956268,526.764465 
	C400.679565,524.843750 405.327667,523.581665 409.727081,521.729004 
	C414.760834,519.609253 419.896606,517.448181 424.406952,514.435181 
	C431.228394,509.878357 434.543427,502.823975 432.342468,494.910278 
	C429.222412,483.692230 424.345276,473.238068 414.867340,465.487946 
	C406.281219,458.467133 402.582306,457.584015 395.598022,462.481567 
	C394.382172,463.334106 393.210236,464.346008 392.283508,465.497925 
	C387.704926,471.189026 383.323700,477.042908 378.622040,482.628174 
	C377.380310,484.103241 374.600616,486.156372 373.627594,485.682800 
	C367.023193,482.468842 366.205872,487.163849 365.266510,491.429474 
	C361.842651,506.977295 358.506989,522.545532 355.312256,538.141724 
	C354.837189,540.460938 355.296783,542.971497 355.683197,546.082825 
M358.823578,469.920624 
	C355.129974,463.253204 346.801056,459.832733 338.085541,461.391144 
	C336.454834,461.682739 334.801270,461.859406 333.182617,462.203583 
	C318.588348,465.306427 303.975525,468.330170 289.432068,471.656555 
	C286.945709,472.225220 284.621735,473.927002 282.498383,475.481689 
	C281.430298,476.263763 280.166870,478.062622 280.387299,479.107147 
	C281.577545,484.747040 283.317932,490.268494 284.621979,495.888031 
	C285.095459,497.928375 285.630249,500.455383 284.861084,502.196838 
	C281.458191,509.901489 277.452209,517.337158 273.928741,524.991882 
	C269.973145,533.585449 272.943146,542.029236 275.942596,549.923462 
	C278.584503,556.876648 285.375336,559.310120 292.401794,558.912842 
	C305.640808,558.164429 318.871307,557.013000 332.047974,555.521851 
	C338.598877,554.780579 344.552887,552.100708 348.752167,546.514954 
	C351.624054,542.694824 351.141693,539.162598 347.293915,536.265503 
	C345.715454,535.076965 344.436096,533.404907 342.731262,532.495117 
	C341.059784,531.603088 338.957703,530.801453 337.152985,530.991211 
	C324.980194,532.270996 312.840393,533.861267 300.678253,535.249084 
	C298.949402,535.446411 297.157532,535.091187 294.658295,534.950134 
	C295.663361,532.654480 296.314087,531.003784 297.093140,529.416016 
	C301.342682,520.755005 301.348267,520.817078 310.881989,521.703613 
	C321.915375,522.729736 332.152679,520.629150 340.737946,513.201782 
	C342.188110,511.947205 344.012482,508.537842 343.618591,508.137726 
	C339.518951,503.973694 335.005981,500.215668 330.577545,496.379822 
	C330.413544,496.237823 329.941681,496.482330 329.611115,496.496887 
	C323.798767,496.752716 317.985718,497.153656 312.173767,497.139526 
	C310.777161,497.136139 309.383911,495.749451 307.989136,494.998901 
	C309.157288,493.703339 310.111237,491.627289 311.528168,491.238495 
	C320.925476,488.659943 330.420929,486.438477 339.886902,484.110962 
	C343.105286,483.319611 346.553497,483.038025 349.502045,481.671814 
	C354.138855,479.523285 358.987366,477.110748 358.823578,469.920624 
M786.033081,458.547699 
	C782.916870,460.469452 779.477295,462.017639 776.745056,464.382874 
	C768.509460,471.512238 760.647278,479.071503 752.455139,486.252899 
	C743.217102,494.351196 735.457947,503.641144 730.797546,514.994995 
	C724.237915,530.976257 725.434021,542.087524 735.845215,552.165771 
	C745.103943,561.128357 756.992249,560.090881 767.837280,559.002319 
	C779.200684,557.861694 790.642944,554.469727 801.294312,550.182556 
	C810.716858,546.389954 820.734314,540.839050 821.069763,528.738586 
	C821.254333,522.082764 819.114685,515.061218 816.692566,508.712158 
	C813.807922,501.150543 809.230286,494.251068 805.942078,486.818726 
	C804.712097,484.038727 804.051514,480.262848 804.900330,477.480774 
	C806.185242,473.269592 805.247192,470.530396 802.288635,467.804108 
	C800.346558,466.014404 798.391602,464.152832 796.859131,462.023468 
	C794.223816,458.361511 790.822510,457.269440 786.033081,458.547699 
M652.549316,485.100647 
	C648.607178,489.090424 644.426392,492.874603 640.774353,497.114349 
	C633.975708,505.007080 628.753845,513.823059 626.553955,524.185059 
	C622.950989,541.155701 631.055237,553.729858 644.806335,557.702087 
	C651.769775,559.713684 659.730591,560.150452 666.909912,559.080688 
	C676.795166,557.607788 686.582703,554.619995 695.998840,551.157349 
	C702.376831,548.811890 708.565002,545.189331 713.895935,540.952576 
	C720.370178,535.807251 721.159119,528.218872 719.088074,520.457336 
	C715.901428,508.514740 709.994019,497.749817 704.494568,486.792328 
	C703.258972,484.330566 702.039001,480.681763 702.986206,478.541687 
	C705.160706,473.628265 704.123657,470.502960 700.250671,467.311005 
	C698.118164,465.553467 696.569824,463.078918 694.794922,460.897736 
	C692.322876,457.859772 686.765686,456.716278 684.161133,458.763824 
	C679.789978,462.200226 675.352539,465.558380 671.086365,469.121155 
	C665.006409,474.198639 659.055908,479.431152 652.549316,485.100647 
M967.548279,466.130066 
	C961.467468,468.386993 955.414551,470.723083 949.300110,472.884766 
	C935.651367,477.710114 932.383362,482.197998 933.264587,496.493286 
	C933.416809,498.962952 935.053284,501.824738 936.876953,503.617798 
	C942.539917,509.185852 950.212097,509.147034 957.434082,509.622406 
	C965.158386,510.130798 972.366028,511.995239 979.220398,515.479675 
	C981.395630,516.585449 983.092651,517.917419 981.118408,520.449463 
	C979.388428,522.668213 977.810852,525.442871 975.480225,526.680725 
	C965.417725,532.025085 955.792358,538.732483 943.523621,538.244324 
	C942.054688,538.185913 939.212524,540.008606 939.219116,540.943665 
	C939.254578,545.952515 939.638367,551.026855 940.617371,555.935913 
	C941.216003,558.938232 943.828430,560.122620 947.160156,560.059631 
	C965.784851,559.707886 980.943481,552.100647 992.918884,538.129822 
	C998.905701,531.145447 1000.781128,517.636536 993.910583,510.433228 
	C991.544434,507.952515 990.699768,504.085754 988.656250,501.210205 
	C987.195984,499.155457 985.087097,497.391388 982.927917,496.040741 
	C979.037842,493.607361 974.892944,491.581177 970.854553,489.384888 
	C970.943176,488.919464 971.031799,488.454041 971.120422,487.988647 
	C977.692017,486.573242 984.212891,484.372650 990.848206,483.944214 
	C998.866272,483.426544 1006.991699,484.776184 1015.048340,484.543610 
	C1017.831604,484.463287 1021.034119,482.542297 1023.056763,480.488617 
	C1023.871765,479.661041 1022.366821,476.054688 1021.331482,474.009766 
	C1019.609741,470.609375 1017.483948,467.403015 1015.380310,464.212585 
	C1014.692383,463.169373 1013.643066,461.825012 1012.589478,461.652222 
	C1006.877808,460.715759 1000.958923,458.921539 995.401306,459.646118 
	C986.253235,460.838837 977.327209,463.734344 967.548279,466.130066 
z"/>
<path fill="#D9A6A2" opacity="1.000000" stroke="none" 
	d="
M614.898682,534.886230 
	C605.244629,546.200745 592.122253,550.528564 578.947327,554.781433 
	C575.825134,555.789246 572.795410,557.091125 569.657715,558.041626 
	C561.941162,560.379211 554.267090,561.669373 546.748047,557.127319 
	C545.573608,556.417847 543.334229,555.986877 542.387451,556.621277 
	C535.179138,561.451477 531.714661,560.769653 526.495422,553.804810 
	C520.907104,546.347412 520.933105,538.549866 523.613098,530.088867 
	C529.050537,512.922241 534.233704,495.674347 539.380676,478.417877 
	C539.772522,477.103912 539.049866,475.457458 538.845276,473.965576 
	C537.844238,474.337433 536.145508,474.490295 535.949524,475.114716 
	C533.868835,481.745667 528.652710,480.460419 524.758301,480.147400 
	C520.298584,485.785950 516.031250,490.808807 512.180603,496.133087 
	C505.669983,505.135376 499.352386,514.280212 493.089417,523.457764 
	C488.720337,529.860046 484.495789,536.365967 480.398651,542.945129 
	C479.501251,544.386047 479.168182,546.310974 479.007202,548.052979 
	C478.528656,553.232178 475.861603,556.909241 471.138245,558.586609 
	C466.633392,560.186462 462.765564,558.660828 459.662292,554.824097 
	C454.392639,548.308960 452.949432,540.324219 451.417603,532.582581 
	C448.783600,519.270691 446.563263,505.867767 447.003510,492.145203 
	C447.221100,485.363647 446.331482,478.548737 446.006989,471.745850 
	C445.936035,470.258392 445.590179,468.364655 446.323944,467.341492 
	C448.100220,464.864624 450.195160,462.422089 452.694275,460.772827 
	C453.472168,460.259491 456.520111,461.907623 457.568512,463.292999 
	C463.673645,471.360382 469.514923,479.601807 469.890717,490.349426 
	C470.076385,495.660248 470.558929,500.963470 471.019928,506.260315 
	C471.171844,508.006256 471.677551,509.721405 472.310699,512.904602 
	C476.420593,506.474731 479.518036,501.028687 483.192719,496.004883 
	C490.832123,485.560699 498.774811,475.338287 506.601532,465.031311 
	C507.300140,464.111237 508.509888,463.334534 508.723694,462.329803 
	C510.458221,454.179443 516.769775,450.151306 523.617371,448.381805 
	C538.175415,444.619873 552.977173,441.606873 567.834656,439.280243 
	C575.224182,438.123047 583.022949,438.589691 590.505127,439.456543 
	C593.933044,439.853729 597.134705,442.849731 600.279236,444.910828 
	C606.605286,449.057220 612.713440,453.835632 614.233765,461.603546 
	C615.590027,468.533752 612.053894,474.527740 607.601196,479.677887 
	C603.810608,484.062286 599.702576,488.172211 595.118652,493.060883 
	C599.067139,496.472137 602.497375,499.758331 606.254272,502.614777 
	C614.245850,508.690796 618.936035,516.662537 619.322021,526.593384 
	C619.423157,529.196655 616.575134,531.914490 614.898682,534.886230 
M591.721619,517.158264 
	C593.121948,515.431763 594.522217,513.705261 595.922546,511.978790 
	C594.114990,510.751740 592.456909,509.148804 590.474854,508.360565 
	C580.127991,504.245819 570.260193,508.125061 560.335815,510.536621 
	C559.629089,510.708344 558.769775,511.457062 558.523682,512.134460 
	C555.848267,519.498657 553.281189,526.902283 550.684631,534.295105 
	C551.124512,534.670227 551.564392,535.045410 552.004272,535.420532 
	C565.748291,531.100098 579.714478,527.293762 591.721619,517.158264 
M581.814453,461.129639 
	C570.953552,461.641083 560.385925,463.231049 550.167664,468.971985 
	C554.288391,472.546295 557.545349,475.562622 561.050354,478.256317 
	C561.784363,478.820465 563.756409,478.650909 564.606812,478.045380 
	C570.509644,473.842316 576.331299,469.515411 581.992981,464.995270 
	C582.735718,464.402313 582.419556,462.482941 581.814453,461.129639 
z"/>
<path fill="#D9A6A2" opacity="1.000000" stroke="none" 
	d="
M188.020569,511.597412 
	C185.055130,514.469299 182.362885,517.725281 179.037399,520.091125 
	C176.396561,521.969788 175.851395,523.570801 176.502640,526.676636 
	C179.439316,540.681580 175.164932,550.264282 163.429962,556.915710 
	C157.701584,560.162598 152.442032,559.760681 147.244827,555.687439 
	C146.852295,555.379761 146.029541,555.027466 146.070557,554.846069 
	C147.477280,548.626221 140.471298,546.808044 139.120865,541.764038 
	C143.832779,538.882996 152.372406,539.773682 150.457993,529.514832 
	C146.474991,530.070618 142.615356,530.571960 138.768311,531.156250 
	C134.837189,531.753357 130.939896,532.734863 126.989998,533.014771 
	C117.237915,533.705994 116.436394,533.058533 112.314392,521.809021 
	C106.796982,529.699463 102.420616,537.734497 100.918640,547.076782 
	C100.042686,552.525146 93.219475,558.320801 86.827896,558.843018 
	C82.782715,559.173523 78.119522,554.358704 75.708282,549.698853 
	C72.264717,543.043945 74.215744,537.366516 76.990929,531.436157 
	C80.800323,523.295837 84.461113,515.085327 88.323753,506.970673 
	C94.734558,493.502655 101.265419,480.091827 107.724205,466.646576 
	C109.879242,462.160400 113.415558,460.774475 118.306488,459.875580 
	C122.290459,459.143402 126.089363,455.860626 129.307022,452.970398 
	C132.091919,450.468842 134.027420,446.985870 136.180603,443.829102 
	C137.663177,441.655487 138.982529,440.507080 141.866730,441.960327 
	C144.649155,443.362366 147.775269,444.397400 150.857147,444.825958 
	C157.767334,445.786896 160.019806,450.125397 160.962204,456.386200 
	C162.715271,468.032593 164.866241,479.622406 167.026459,491.203125 
	C168.579178,499.527161 168.828903,499.592651 176.309692,498.553497 
	C180.641708,501.466858 184.533844,504.084412 188.709015,507.234680 
	C188.668198,509.044037 188.344391,510.320709 188.020569,511.597412 
M128.193665,492.715302 
	C125.075447,497.519775 121.957230,502.324249 118.839020,507.128723 
	C119.113396,507.598022 119.387764,508.067322 119.662140,508.536652 
	C127.371468,507.690857 135.080795,506.845093 143.251694,505.948669 
	C141.171417,497.587891 139.387192,490.416992 137.258652,481.862213 
	C133.829788,485.928223 131.216751,489.026855 128.193665,492.715302 
z"/>
<path fill="#D9A7A3" opacity="1.000000" stroke="none" 
	d="
M828.402527,536.850952 
	C834.485657,517.227478 840.382996,497.907104 846.907288,478.800781 
	C848.864807,473.068298 852.417480,467.842255 855.539856,462.561859 
	C857.093872,459.933868 859.522095,458.574402 862.726807,460.457397 
	C866.495667,462.671936 871.017944,464.091980 873.980652,467.079315 
	C878.697021,471.835052 877.682617,476.932190 872.228210,485.489105 
	C870.336426,488.456909 868.979065,491.765411 867.377625,494.918274 
	C867.848633,495.304535 868.319641,495.690765 868.790649,496.076996 
	C875.313049,491.142792 881.668335,485.965515 888.401733,481.338318 
	C896.139099,476.021179 904.139465,471.069977 912.217773,466.284119 
	C913.385254,465.592438 915.902588,466.249725 917.306641,467.094757 
	C919.688599,468.528259 921.473633,470.970581 923.876526,472.349457 
	C931.355835,476.641418 929.492004,482.035431 923.203552,487.481110 
	C918.467896,491.582062 912.633911,494.385559 907.521484,498.087860 
	C901.073303,502.757355 894.757874,507.629395 888.655457,512.737061 
	C887.693787,513.541931 887.386597,516.509033 888.091492,517.695007 
	C891.910034,524.119751 898.270203,526.559387 905.323242,527.066895 
	C910.794006,527.460449 916.342834,527.538818 921.803406,527.096436 
	C927.754761,526.614319 931.008362,530.681641 933.240356,534.526733 
	C934.471558,536.647827 932.800232,541.226562 931.236511,544.026794 
	C928.482605,548.958801 923.869019,550.997986 917.933777,551.189514 
	C900.676453,551.746216 886.769714,544.653992 874.938721,532.940430 
	C871.419800,529.456482 868.996094,529.297791 866.128723,533.030457 
	C862.386658,537.901733 858.745850,542.850830 854.992859,547.713501 
	C852.763550,550.601929 850.671631,553.672729 848.044922,556.162476 
	C842.416687,561.497253 835.467285,559.526733 833.051331,552.103088 
	C831.446289,547.171387 829.983459,542.193420 828.402527,536.850952 
z"/>
<path fill="#D9A7A3" opacity="1.000000" stroke="none" 
	d="
M355.503601,545.738159 
	C355.296783,542.971497 354.837189,540.460938 355.312256,538.141724 
	C358.506989,522.545532 361.842651,506.977295 365.266510,491.429474 
	C366.205872,487.163849 367.023193,482.468842 373.627594,485.682800 
	C374.600616,486.156372 377.380310,484.103241 378.622040,482.628174 
	C383.323700,477.042908 387.704926,471.189026 392.283508,465.497925 
	C393.210236,464.346008 394.382172,463.334106 395.598022,462.481567 
	C402.582306,457.584015 406.281219,458.467133 414.867340,465.487946 
	C424.345276,473.238068 429.222412,483.692230 432.342468,494.910278 
	C434.543427,502.823975 431.228394,509.878357 424.406952,514.435181 
	C419.896606,517.448181 414.760834,519.609253 409.727081,521.729004 
	C405.327667,523.581665 400.679565,524.843750 394.956268,526.764465 
	C399.904694,531.419617 404.822601,534.340698 410.305237,535.898560 
	C417.478607,537.936951 424.785919,539.840027 432.163940,540.698730 
	C436.725311,541.229553 438.482788,543.494446 439.885834,547.068542 
	C443.180573,555.461426 438.336487,563.821167 429.587585,562.667053 
	C419.844025,561.381714 410.133453,558.510681 400.913330,555.003052 
	C393.130585,552.042114 386.069611,547.183960 378.425629,543.022034 
	C377.496338,545.350647 376.507599,548.838867 374.750854,551.884094 
	C373.528107,554.003601 371.530914,556.027344 369.389801,557.197266 
	C363.954193,560.167236 358.673828,557.444458 357.173462,551.349060 
	C356.737701,549.578674 356.183258,547.837402 355.503601,545.738159 
M398.660950,489.035095 
	C394.030640,493.850586 388.791626,498.264313 387.111542,507.111725 
	C394.009308,504.549377 399.732574,502.196075 405.608521,500.321320 
	C409.460144,499.092499 410.870941,497.493805 408.792328,493.541901 
	C406.033020,488.295898 402.879395,486.473511 398.660950,489.035095 
z"/>
<path fill="#D9A7A3" opacity="1.000000" stroke="none" 
	d="
M358.830933,470.309570 
	C358.987366,477.110748 354.138855,479.523285 349.502045,481.671814 
	C346.553497,483.038025 343.105286,483.319611 339.886902,484.110962 
	C330.420929,486.438477 320.925476,488.659943 311.528168,491.238495 
	C310.111237,491.627289 309.157288,493.703339 307.989136,494.998901 
	C309.383911,495.749451 310.777161,497.136139 312.173767,497.139526 
	C317.985718,497.153656 323.798767,496.752716 329.611115,496.496887 
	C329.941681,496.482330 330.413544,496.237823 330.577545,496.379822 
	C335.005981,500.215668 339.518951,503.973694 343.618591,508.137726 
	C344.012482,508.537842 342.188110,511.947205 340.737946,513.201782 
	C332.152679,520.629150 321.915375,522.729736 310.881989,521.703613 
	C301.348267,520.817078 301.342682,520.755005 297.093140,529.416016 
	C296.314087,531.003784 295.663361,532.654480 294.658295,534.950134 
	C297.157532,535.091187 298.949402,535.446411 300.678253,535.249084 
	C312.840393,533.861267 324.980194,532.270996 337.152985,530.991211 
	C338.957703,530.801453 341.059784,531.603088 342.731262,532.495117 
	C344.436096,533.404907 345.715454,535.076965 347.293915,536.265503 
	C351.141693,539.162598 351.624054,542.694824 348.752167,546.514954 
	C344.552887,552.100708 338.598877,554.780579 332.047974,555.521851 
	C318.871307,557.013000 305.640808,558.164429 292.401794,558.912842 
	C285.375336,559.310120 278.584503,556.876648 275.942596,549.923462 
	C272.943146,542.029236 269.973145,533.585449 273.928741,524.991882 
	C277.452209,517.337158 281.458191,509.901489 284.861084,502.196838 
	C285.630249,500.455383 285.095459,497.928375 284.621979,495.888031 
	C283.317932,490.268494 281.577545,484.747040 280.387299,479.107147 
	C280.166870,478.062622 281.430298,476.263763 282.498383,475.481689 
	C284.621735,473.927002 286.945709,472.225220 289.432068,471.656555 
	C303.975525,468.330170 318.588348,465.306427 333.182617,462.203583 
	C334.801270,461.859406 336.454834,461.682739 338.085541,461.391144 
	C346.801056,459.832733 355.129974,463.253204 358.830933,470.309570 
z"/>
<path fill="#D9A7A3" opacity="1.000000" stroke="none" 
	d="
M786.307495,458.314453 
	C790.822510,457.269440 794.223816,458.361511 796.859131,462.023468 
	C798.391602,464.152832 800.346558,466.014404 802.288635,467.804108 
	C805.247192,470.530396 806.185242,473.269592 804.900330,477.480774 
	C804.051514,480.262848 804.712097,484.038727 805.942078,486.818726 
	C809.230286,494.251068 813.807922,501.150543 816.692566,508.712158 
	C819.114685,515.061218 821.254333,522.082764 821.069763,528.738586 
	C820.734314,540.839050 810.716858,546.389954 801.294312,550.182556 
	C790.642944,554.469727 779.200684,557.861694 767.837280,559.002319 
	C756.992249,560.090881 745.103943,561.128357 735.845215,552.165771 
	C725.434021,542.087524 724.237915,530.976257 730.797546,514.994995 
	C735.457947,503.641144 743.217102,494.351196 752.455139,486.252899 
	C760.647278,479.071503 768.509460,471.512238 776.745056,464.382874 
	C779.477295,462.017639 782.916870,460.469452 786.307495,458.314453 
M757.717346,536.024048 
	C770.416748,535.424988 782.799438,533.934204 793.900146,526.724731 
	C799.992493,522.767944 801.633179,519.572571 798.537903,513.228027 
	C795.840942,507.700043 792.861389,502.303497 789.818176,496.956207 
	C789.165405,495.809113 787.438965,494.167267 786.655090,494.382782 
	C782.058533,495.646515 777.093079,496.613739 773.183533,499.128998 
	C762.779114,505.822784 755.151978,515.250061 749.814575,526.402832 
	C746.859253,532.577942 748.078979,534.638184 754.824280,535.911133 
	C755.471924,536.033386 756.152527,535.981079 757.717346,536.024048 
z"/>
<path fill="#D9A7A3" opacity="1.000000" stroke="none" 
	d="
M652.799683,484.849030 
	C659.055908,479.431152 665.006409,474.198639 671.086365,469.121155 
	C675.352539,465.558380 679.789978,462.200226 684.161133,458.763824 
	C686.765686,456.716278 692.322876,457.859772 694.794922,460.897736 
	C696.569824,463.078918 698.118164,465.553467 700.250671,467.311005 
	C704.123657,470.502960 705.160706,473.628265 702.986206,478.541687 
	C702.039001,480.681763 703.258972,484.330566 704.494568,486.792328 
	C709.994019,497.749817 715.901428,508.514740 719.088074,520.457336 
	C721.159119,528.218872 720.370178,535.807251 713.895935,540.952576 
	C708.565002,545.189331 702.376831,548.811890 695.998840,551.157349 
	C686.582703,554.619995 676.795166,557.607788 666.909912,559.080688 
	C659.730591,560.150452 651.769775,559.713684 644.806335,557.702087 
	C631.055237,553.729858 622.950989,541.155701 626.553955,524.185059 
	C628.753845,513.823059 633.975708,505.007080 640.774353,497.114349 
	C644.426392,492.874603 648.607178,489.090424 652.799683,484.849030 
M698.591675,520.770691 
	C698.597595,519.635559 698.988037,518.317810 698.549133,517.394043 
	C694.804810,509.512787 690.910034,501.703003 687.072327,493.896271 
	C684.399963,494.827393 682.229126,496.431122 680.740906,495.944977 
	C676.094971,494.427429 673.733704,497.629120 670.782532,499.779602 
	C669.708679,500.562012 668.666992,501.391632 667.642395,502.238129 
	C659.073547,509.316833 652.320557,517.785767 647.830444,528.010132 
	C645.942383,532.309326 647.430603,534.679382 651.879272,535.453857 
	C653.344177,535.708801 654.857056,536.108215 656.304199,535.973022 
	C663.237854,535.325500 670.417664,535.425781 677.013062,533.530762 
	C684.850403,531.278931 692.941711,528.569763 698.591675,520.770691 
z"/>
<path fill="#D9A7A3" opacity="1.000000" stroke="none" 
	d="
M967.927917,466.021057 
	C977.327209,463.734344 986.253235,460.838837 995.401306,459.646118 
	C1000.958923,458.921539 1006.877808,460.715759 1012.589478,461.652222 
	C1013.643066,461.825012 1014.692383,463.169373 1015.380310,464.212585 
	C1017.483948,467.403015 1019.609741,470.609375 1021.331482,474.009766 
	C1022.366821,476.054688 1023.871765,479.661041 1023.056763,480.488617 
	C1021.034119,482.542297 1017.831604,484.463287 1015.048340,484.543610 
	C1006.991699,484.776184 998.866272,483.426544 990.848206,483.944214 
	C984.212891,484.372650 977.692017,486.573242 971.120422,487.988647 
	C971.031799,488.454041 970.943176,488.919464 970.854553,489.384888 
	C974.892944,491.581177 979.037842,493.607361 982.927917,496.040741 
	C985.087097,497.391388 987.195984,499.155457 988.656250,501.210205 
	C990.699768,504.085754 991.544434,507.952515 993.910583,510.433228 
	C1000.781128,517.636536 998.905701,531.145447 992.918884,538.129822 
	C980.943481,552.100647 965.784851,559.707886 947.160156,560.059631 
	C943.828430,560.122620 941.216003,558.938232 940.617371,555.935913 
	C939.638367,551.026855 939.254578,545.952515 939.219116,540.943665 
	C939.212524,540.008606 942.054688,538.185913 943.523621,538.244324 
	C955.792358,538.732483 965.417725,532.025085 975.480225,526.680725 
	C977.810852,525.442871 979.388428,522.668213 981.118408,520.449463 
	C983.092651,517.917419 981.395630,516.585449 979.220398,515.479675 
	C972.366028,511.995239 965.158386,510.130798 957.434082,509.622406 
	C950.212097,509.147034 942.539917,509.185852 936.876953,503.617798 
	C935.053284,501.824738 933.416809,498.962952 933.264587,496.493286 
	C932.383362,482.197998 935.651367,477.710114 949.300110,472.884766 
	C955.414551,470.723083 961.467468,468.386993 967.927917,466.021057 
z"/>
<path fill="#D9A7A3" opacity="1.000000" stroke="none" 
	d="
M188.342880,511.902771 
	C188.344391,510.320709 188.668198,509.044037 188.995636,507.426239 
	C192.304733,502.871277 195.152725,498.167725 199.019943,494.555267 
	C205.247467,488.738007 211.763336,483.056458 218.862000,478.389252 
	C227.435104,472.752625 236.761566,468.266632 245.726517,463.219666 
	C252.166275,459.594269 257.620544,460.266144 262.441650,465.764679 
	C264.827240,468.485443 267.837677,471.308533 268.693451,474.575684 
	C270.156342,480.160736 265.127258,486.496124 258.574188,488.799225 
	C253.871063,490.452118 248.802124,491.348969 244.436127,493.620544 
	C233.304779,499.412079 221.874985,504.983154 213.637863,514.922974 
	C211.809845,517.128906 210.592194,520.089233 209.869263,522.901611 
	C208.886917,526.723145 211.510544,530.647766 215.676788,531.166382 
	C228.005569,532.701050 240.374451,533.955566 252.752731,535.030823 
	C257.954895,535.482666 264.976868,541.157593 265.606018,546.262634 
	C265.718903,547.178467 265.613861,548.503540 265.043732,549.060303 
	C260.736755,553.266235 257.130890,557.954041 249.799683,557.937012 
	C238.607864,557.911011 227.563049,557.934204 216.697968,554.709229 
	C200.781769,549.984985 192.198837,539.266296 190.065460,523.040039 
	C189.590897,519.430481 189.131546,515.818848 188.342880,511.902771 
z"/>
<path fill="#FEFDFD" opacity="1.000000" stroke="none" 
	d="
M591.418579,517.354065 
	C579.714478,527.293762 565.748291,531.100098 552.004272,535.420532 
	C551.564392,535.045410 551.124512,534.670227 550.684631,534.295105 
	C553.281189,526.902283 555.848267,519.498657 558.523682,512.134460 
	C558.769775,511.457062 559.629089,510.708344 560.335815,510.536621 
	C570.260193,508.125061 580.127991,504.245819 590.474854,508.360565 
	C592.456909,509.148804 594.114990,510.751740 595.922546,511.978790 
	C594.522217,513.705261 593.121948,515.431763 591.418579,517.354065 
z"/>
<path fill="#FDFAFA" opacity="1.000000" stroke="none" 
	d="
M582.204102,461.153778 
	C582.419556,462.482941 582.735718,464.402313 581.992981,464.995270 
	C576.331299,469.515411 570.509644,473.842316 564.606812,478.045380 
	C563.756409,478.650909 561.784363,478.820465 561.050354,478.256317 
	C557.545349,475.562622 554.288391,472.546295 550.167664,468.971985 
	C560.385925,463.231049 570.953552,461.641083 582.204102,461.153778 
z"/>
<path fill="#FDFAFA" opacity="1.000000" stroke="none" 
	d="
M128.398682,492.420410 
	C131.216751,489.026855 133.829788,485.928223 137.258652,481.862213 
	C139.387192,490.416992 141.171417,497.587891 143.251694,505.948669 
	C135.080795,506.845093 127.371468,507.690857 119.662140,508.536652 
	C119.387764,508.067322 119.113396,507.598022 118.839020,507.128723 
	C121.957230,502.324249 125.075447,497.519775 128.398682,492.420410 
z"/>
<path fill="#FDFAFA" opacity="1.000000" stroke="none" 
	d="
M398.906799,488.767212 
	C402.879395,486.473511 406.033020,488.295898 408.792328,493.541901 
	C410.870941,497.493805 409.460144,499.092499 405.608521,500.321320 
	C399.732574,502.196075 394.009308,504.549377 387.111542,507.111725 
	C388.791626,498.264313 394.030640,493.850586 398.906799,488.767212 
z"/>
<path fill="#FEFDFD" opacity="1.000000" stroke="none" 
	d="
M757.267578,536.016907 
	C756.152527,535.981079 755.471924,536.033386 754.824280,535.911133 
	C748.078979,534.638184 746.859253,532.577942 749.814575,526.402832 
	C755.151978,515.250061 762.779114,505.822784 773.183533,499.128998 
	C777.093079,496.613739 782.058533,495.646515 786.655090,494.382782 
	C787.438965,494.167267 789.165405,495.809113 789.818176,496.956207 
	C792.861389,502.303497 795.840942,507.700043 798.537903,513.228027 
	C801.633179,519.572571 799.992493,522.767944 793.900146,526.724731 
	C782.799438,533.934204 770.416748,535.424988 757.267578,536.016907 
z"/>
<path fill="#FEFDFD" opacity="1.000000" stroke="none" 
	d="
M698.415466,521.109741 
	C692.941711,528.569763 684.850403,531.278931 677.013062,533.530762 
	C670.417664,535.425781 663.237854,535.325500 656.304199,535.973022 
	C654.857056,536.108215 653.344177,535.708801 651.879272,535.453857 
	C647.430603,534.679382 645.942383,532.309326 647.830444,528.010132 
	C652.320557,517.785767 659.073547,509.316833 667.642395,502.238129 
	C668.666992,501.391632 669.708679,500.562012 670.782532,499.779602 
	C673.733704,497.629120 676.094971,494.427429 680.740906,495.944977 
	C682.229126,496.431122 684.399963,494.827393 687.072327,493.896271 
	C690.910034,501.703003 694.804810,509.512787 698.549133,517.394043 
	C698.988037,518.317810 698.597595,519.635559 698.415466,521.109741 
z"/>
</svg>