<svg version="1.1" id="Layer_1" xmlns="http://www.w3.org/2000/svg" xmlns:xlink="http://www.w3.org/1999/xlink" x="0px" y="0px"
	 width="100%" viewBox="0 0 1024 1024" enable-background="new 0 0 1024 1024" xml:space="preserve">
<path fill="#000000" opacity="1.000000" stroke="none" 
	d="
M426.734802,500.065796 
	C425.431030,489.924011 423.344696,480.338257 423.564880,470.415741 
	C423.715576,463.624420 422.833954,456.800751 422.243469,450.006348 
	C421.944183,446.562347 422.271637,443.309906 424.257507,440.450256 
	C428.019196,435.033417 431.822205,436.168549 435.944641,441.123383 
	C445.531342,452.645935 446.258026,466.275116 447.254974,480.036438 
	C447.302948,480.698639 447.374573,481.367676 447.533020,482.009369 
	C447.603882,482.296356 447.916992,482.523468 448.194855,482.871216 
	C450.511932,482.951477 450.999298,480.817322 451.874176,479.434448 
	C460.605011,465.633575 471.056244,452.963593 480.002869,439.483826 
	C488.930695,426.032410 500.990021,422.904053 514.517578,419.873413 
	C525.749573,417.357025 537.010071,415.339203 548.536438,414.929474 
	C561.392151,414.472473 571.030701,420.975891 579.011353,429.911438 
	C583.699707,435.160858 584.233459,441.837036 580.885803,448.538116 
	C578.132202,454.050110 573.730225,458.106567 569.565430,462.410248 
	C564.688721,467.449493 564.697205,467.918365 570.251648,472.362061 
	C575.836304,476.829895 581.567505,481.119202 584.759399,487.843048 
	C590.980957,500.949188 587.247620,505.119537 576.631470,513.932312 
	C570.916748,518.676208 563.905823,522.146790 556.638184,523.977478 
	C546.896423,526.431396 537.987061,532.273376 527.407043,531.359802 
	C526.913879,531.317200 526.363586,531.541077 525.918457,531.397522 
	C520.250793,529.569641 514.877380,526.621643 508.715210,530.907715 
	C506.203766,532.654602 503.319672,529.934692 501.515656,527.756592 
	C496.748169,522.000488 492.686798,516.580383 495.108093,507.745544 
	C498.750580,494.454956 504.373230,481.777649 507.014160,468.227417 
	C507.973816,463.303375 509.573456,458.600983 511.034546,453.840088 
	C511.474670,452.405945 511.985504,450.975922 510.539581,449.738190 
	C507.163788,450.074219 507.840179,454.227478 505.137390,455.161896 
	C502.555786,456.054321 499.926666,456.090302 497.292358,456.055450 
	C493.353058,462.357849 488.317108,467.688202 483.628632,473.287750 
	C474.938477,483.666748 468.186676,495.285126 461.552734,507.011566 
	C458.563721,512.295044 454.850037,517.006104 453.518921,523.300964 
	C452.542023,527.920532 448.456238,530.679260 443.367279,530.696472 
	C439.491791,530.709595 433.473175,525.769104 432.267487,521.688354 
	C430.199249,514.688293 427.930786,507.734741 426.734802,500.065796 
M525.404663,498.770264 
	C524.953186,501.153595 523.285034,503.270508 523.860168,506.773834 
	C539.022827,502.510956 553.537720,497.838837 565.217834,485.644257 
	C554.523560,478.533813 544.465149,481.585297 534.233337,484.014343 
	C527.831543,485.534149 528.724670,491.201752 526.635010,495.198914 
	C526.177612,496.073883 525.975037,497.082092 525.404663,498.770264 
M548.042114,443.597839 
	C549.289124,442.006561 551.473694,441.043091 551.746521,437.927551 
	C541.783020,439.052002 532.208435,439.727661 523.225891,444.853699 
	C533.585083,454.485016 535.402222,454.540680 545.345947,446.121521 
	C546.107056,445.477112 546.813721,444.768402 548.042114,443.597839 
z"/>
<path fill="#000000" opacity="1.000000" stroke="none" 
	d="
M137.669128,522.567993 
	C136.470993,518.852417 132.323196,517.566589 131.725128,513.758850 
	C133.749390,511.626892 136.683121,511.818420 138.985565,510.585449 
	C141.211456,509.393463 142.988586,507.684875 142.440918,505.092041 
	C141.798050,502.048492 139.001694,502.900177 137.053085,503.210999 
	C132.292587,503.970276 127.624275,505.335571 122.855621,506.009705 
	C113.118042,507.386261 110.377205,505.712189 106.227783,496.326233 
	C101.092911,503.135529 97.783989,510.529419 96.230003,518.707581 
	C95.179268,524.237244 88.586868,529.790344 82.397064,530.223267 
	C77.975304,530.532593 73.771477,525.975098 71.103378,520.551453 
	C68.373932,515.003113 69.721222,510.364471 71.967232,505.505707 
	C77.626907,493.262360 83.685875,481.191620 88.959717,468.785950 
	C92.604591,460.212067 96.889778,451.990753 100.969116,443.649414 
	C103.324715,438.832794 106.555389,435.418579 112.488953,435.832977 
	C114.609802,435.981079 116.281479,434.722839 117.876915,433.498566 
	C120.539536,431.455444 122.585144,428.811951 124.849899,426.371338 
	C127.392021,423.631744 128.467010,417.685211 132.109528,418.294708 
	C138.164352,419.307892 144.504730,420.893219 149.891983,424.423889 
	C151.674347,425.591980 152.076050,427.603424 152.399536,429.653229 
	C154.367615,442.125275 156.309570,454.600922 159.160477,466.917969 
	C160.037582,470.707367 160.947495,473.154999 165.973511,472.562225 
	C169.880798,472.101379 172.776443,476.019440 176.094788,477.955322 
	C179.111877,479.715454 180.354675,479.676422 182.310165,476.619049 
	C188.860275,466.377960 197.430893,458.389740 208.220535,452.359192 
	C216.633804,447.656830 225.266953,443.344452 233.550735,438.412476 
	C237.522614,436.047668 241.118652,436.103699 245.140930,438.730774 
	C248.243347,440.757050 250.687027,443.421387 253.350647,445.822052 
	C256.474304,448.637238 255.865128,452.492645 254.146088,455.988922 
	C251.495438,461.380035 246.614822,463.652924 241.128540,465.185211 
	C226.892365,469.161377 214.873535,476.913239 204.331421,487.126404 
	C202.498520,488.902100 201.210083,490.961578 200.254745,493.321930 
	C198.086197,498.679718 199.563004,502.095123 205.078796,503.456085 
	C215.977097,506.145142 227.108276,506.742126 238.284164,506.828613 
	C243.957184,506.872528 249.566772,510.887421 251.569107,516.236572 
	C252.178680,517.865051 252.638138,519.720215 251.408585,520.998169 
	C247.653473,524.901245 244.171188,528.904968 237.853363,529.213928 
	C227.480408,529.721191 217.278503,529.596863 207.176834,526.846680 
	C190.196991,522.223999 181.770218,511.813934 179.675446,494.844177 
	C179.372772,492.392242 179.000870,489.948883 178.558487,486.763550 
	C175.003632,489.564636 172.399536,492.594116 168.913284,494.494202 
	C166.667114,495.718353 167.542740,497.845093 167.929169,499.850189 
	C170.640533,513.918213 163.598007,526.519104 151.069809,530.180115 
	C144.888168,531.986511 138.663696,528.609924 137.669128,522.567993 
M118.943642,472.409393 
	C117.341042,475.022827 115.738434,477.636292 113.824921,480.756744 
	C120.435814,481.251923 125.997108,480.550049 131.539841,479.611481 
	C133.091949,479.348694 134.769852,478.733795 134.400711,476.853729 
	C133.273895,471.114502 132.369614,465.273834 129.594208,459.594360 
	C124.808228,463.122894 122.243607,467.611664 118.943642,472.409393 
z"/>
<path fill="#000000" opacity="1.000000" stroke="none" 
	d="
M850.193359,450.149841 
	C855.094604,447.278534 859.675110,444.573029 864.308044,441.960388 
	C866.545288,440.698792 868.566772,440.693573 870.569641,442.816162 
	C872.374878,444.729248 874.491699,446.434570 876.713257,447.852051 
	C882.855347,451.770966 881.901489,456.777405 876.470886,461.849823 
	C872.981384,465.109161 868.787476,467.744476 864.589905,470.087219 
	C856.814331,474.426910 850.347900,480.451843 843.322205,485.757111 
	C841.117920,487.421631 841.064331,489.134216 842.638855,491.286530 
	C846.594727,496.693817 852.281860,498.892822 858.563782,499.523010 
	C863.183472,499.986420 867.891418,499.883911 872.541077,499.652344 
	C877.765198,499.392181 883.956360,502.108673 885.643005,506.619232 
	C887.471252,511.508759 884.515015,515.242981 881.293701,518.536743 
	C878.149170,521.752075 874.464600,523.332336 869.717407,523.330994 
	C853.576904,523.326416 840.367554,516.853088 829.410583,505.509979 
	C826.394958,502.388000 824.243408,502.609161 821.542419,505.329773 
	C817.395325,509.506927 814.509888,514.606873 811.242554,519.422852 
	C809.081299,522.608582 806.807922,525.680786 803.787781,528.106384 
	C798.345154,532.477722 793.121033,530.574707 789.695862,524.393860 
	C783.492493,513.199707 786.250000,502.198303 789.718567,491.382843 
	C794.689697,475.881958 799.687683,460.343628 806.742493,445.602966 
	C813.221863,432.064819 815.885803,433.698212 827.992371,441.425049 
	C832.229858,444.129486 832.668152,450.353241 830.207520,454.822968 
	C828.057373,458.728821 826.115234,462.751190 824.160339,466.760681 
	C823.837463,467.422852 823.394897,468.288757 824.422974,469.344330 
	C832.890869,463.030914 841.392517,456.692383 850.193359,450.149841 
z"/>
<path fill="#000000" opacity="1.000000" stroke="none" 
	d="
M343.948364,475.099701 
	C345.003021,470.814056 345.920288,466.925049 346.962006,463.069641 
	C347.782379,460.033508 349.534729,458.333496 352.838562,459.839508 
	C356.015747,461.287811 357.474182,458.949188 358.994812,457.072845 
	C362.453430,452.805176 365.707458,448.372040 369.148438,444.089508 
	C370.393036,442.540466 371.868134,441.156464 373.350525,439.822113 
	C379.908020,433.919281 383.221527,433.866302 390.451996,438.890289 
	C400.981445,446.206421 406.815002,456.636749 410.042206,468.619598 
	C412.159119,476.479767 409.372253,483.017731 402.906982,487.963470 
	C397.375366,492.194916 390.879517,494.301636 384.406036,496.509338 
	C381.793579,497.400299 378.854065,497.681488 376.402222,500.229279 
	C379.916016,504.359741 384.659912,506.343475 389.484070,507.722900 
	C396.352478,509.686890 403.351471,511.345215 410.401337,512.459412 
	C413.926483,513.016541 415.749664,514.612854 416.976440,517.589172 
	C418.815521,522.051086 418.651398,526.628784 415.993225,530.436157 
	C412.810364,534.994995 407.488525,534.925720 402.748047,533.946350 
	C390.624847,531.441650 379.039459,527.231018 368.261993,521.072510 
	C365.277039,519.366821 362.678680,516.984619 359.446991,514.572510 
	C358.190125,517.668945 357.120819,520.390137 355.984467,523.083069 
	C354.144531,527.443298 350.817413,530.538147 346.146576,530.151428 
	C341.585846,529.773926 339.996918,525.625366 338.049561,521.704407 
	C333.719177,512.985291 339.148163,505.170685 339.362091,496.926270 
	C339.553528,489.549164 342.906006,482.767517 343.948364,475.099701 
M380.054535,463.090271 
	C375.443573,467.437836 370.409363,471.482941 368.415680,478.778961 
	C374.323761,478.391327 378.731720,476.014587 383.255951,474.164825 
	C388.398987,472.062012 388.853882,469.802063 385.181854,465.697021 
	C383.968384,464.340515 382.695129,462.968628 380.054535,463.090271 
z"/>
<path fill="#000000" opacity="1.000000" stroke="none" 
	d="
M778.324158,504.890747 
	C775.326599,514.811218 767.200256,518.988953 759.141357,522.265076 
	C751.231567,525.480591 743.048462,528.168701 734.437439,529.799377 
	C726.159302,531.366943 718.127686,530.885803 710.176880,529.893127 
	C696.424805,528.176147 686.764526,514.056030 689.038086,500.255188 
	C691.684937,484.188507 701.121033,472.303070 712.415161,461.247162 
	C719.209717,454.595947 727.457764,449.691498 733.747253,442.612976 
	C737.139587,438.795135 742.097412,437.645721 745.804810,434.226715 
	C748.349731,431.879669 752.680786,433.896667 754.961792,436.800934 
	C756.724182,439.044769 758.610840,441.134277 760.675964,443.021027 
	C763.865112,445.934753 765.037109,449.038177 763.266174,453.224915 
	C761.919617,456.408356 763.446533,459.313965 764.829590,462.187897 
	C769.502686,471.898254 775.031860,481.213745 777.834473,491.779053 
	C778.968872,496.055878 779.850220,500.176208 778.324158,504.890747 
M725.720459,507.024597 
	C735.307251,506.430573 744.324951,504.059448 752.587708,498.943451 
	C757.470947,495.919952 759.046021,492.876587 756.773682,487.801788 
	C754.338196,482.362579 751.329956,477.176910 748.498169,471.920166 
	C747.799866,470.623993 747.006042,469.719910 745.014832,469.871155 
	C738.531555,470.363556 733.326294,473.124512 728.549377,477.399750 
	C721.158264,484.014618 715.092712,491.529694 711.076050,500.634735 
	C709.492676,504.223907 710.601013,506.269989 714.491455,507.086304 
	C717.968506,507.815826 721.390137,507.971436 725.720459,507.024597 
z"/>
<path fill="#000000" opacity="1.000000" stroke="none" 
	d="
M682.796509,503.275452 
	C680.115234,514.476074 671.279236,518.966431 662.369141,522.574402 
	C654.440247,525.785156 646.233032,528.367188 637.606995,529.907837 
	C629.159851,531.416504 620.941528,531.007874 612.889893,529.588562 
	C599.376160,527.206238 590.850769,513.373474 593.143250,499.424164 
	C595.651978,484.159454 604.880188,472.854767 615.151001,462.240417 
	C622.643555,454.497223 631.777893,448.596588 639.497620,441.054504 
	C642.475220,438.145325 646.601501,436.575043 650.044312,434.072388 
	C652.662109,432.169373 656.706970,433.892578 658.844971,436.672668 
	C660.485535,438.805786 662.229065,440.799744 664.202393,442.532776 
	C667.705566,445.609253 669.203674,448.903839 667.186035,453.524414 
	C665.975159,456.297546 667.275879,459.033051 668.518311,461.589691 
	C673.303162,471.435883 678.686890,480.994141 681.739075,491.635986 
	C682.818115,495.398163 683.683044,499.000946 682.796509,503.275452 
M621.744080,489.206787 
	C619.470459,492.678864 616.772400,495.894226 615.311035,499.857361 
	C613.480103,504.822845 614.121765,506.132874 619.178284,507.186859 
	C620.952026,507.556580 622.836609,507.853973 624.615417,507.665100 
	C635.526550,506.506836 646.405090,505.410614 656.077759,499.258698 
	C662.001465,495.491180 663.319275,492.339752 660.111145,486.096313 
	C658.363159,482.694489 656.469971,479.366882 654.741150,475.955658 
	C651.913086,470.375305 645.961853,468.036957 640.643555,471.456512 
	C633.530334,476.030212 626.950317,481.427429 621.744080,489.206787 
z"/>
<path fill="#000000" opacity="1.000000" stroke="none" 
	d="
M266.667236,482.738220 
	C269.812592,477.226501 270.543915,472.736633 268.229553,466.257294 
	C263.906799,454.155334 262.385223,450.088745 279.427368,445.554474 
	C293.273895,441.870392 307.285431,439.189911 321.426910,436.910889 
	C329.142090,435.667542 334.646057,438.890625 339.632538,443.586731 
	C341.929504,445.749969 340.648926,448.970795 339.060333,451.424805 
	C337.183685,454.323700 334.272247,455.984406 331.122711,457.227966 
	C327.062317,458.831146 322.788940,459.609528 318.501526,460.178589 
	C310.738525,461.208954 303.807831,465.454224 295.869537,465.866791 
	C294.357178,465.945374 292.397919,466.865997 292.589386,468.994202 
	C292.812378,471.472687 295.013336,471.560974 296.788757,471.511963 
	C301.607819,471.378906 306.424957,471.076141 311.234039,470.720795 
	C314.071686,470.511139 316.300964,470.943939 318.015808,473.687439 
	C319.106110,475.431824 321.058868,476.730774 322.821930,477.942810 
	C327.416718,481.101501 327.390564,483.584991 323.005249,487.150970 
	C314.872711,493.764008 305.527710,495.663086 295.360077,494.936523 
	C285.535858,494.234467 283.760071,495.621613 280.831146,506.167328 
	C283.927979,508.144409 287.394012,507.800018 290.810089,507.448090 
	C300.394531,506.460693 309.945129,505.259430 319.352478,503.067810 
	C322.636597,502.302673 329.423981,506.801300 331.740875,510.621094 
	C334.426086,515.048096 331.614105,517.823608 329.013519,520.639038 
	C326.576599,523.277222 323.391235,524.745300 319.968750,525.698242 
	C305.742981,529.659180 291.150238,530.932739 276.518433,530.266602 
	C265.383545,529.759583 261.193298,524.824097 258.965820,514.070374 
	C257.174927,505.424133 258.127106,497.670593 263.298248,490.382843 
	C264.805267,488.258972 265.469879,485.537354 266.667236,482.738220 
z"/>
<path fill="#000000" opacity="1.000000" stroke="none" 
	d="
M925.150635,439.012329 
	C935.845642,435.785889 946.197205,433.865417 957.002869,436.504486 
	C960.140808,437.270905 962.538940,438.343567 964.101929,441.272522 
	C965.587463,444.056396 967.351868,446.693665 969.037781,449.367615 
	C970.374146,451.487244 972.244446,453.675446 970.265686,456.150635 
	C968.365051,458.528259 965.708374,460.581238 962.530151,459.923340 
	C954.758240,458.314484 946.997192,460.425690 939.137085,459.387787 
	C933.434021,458.634674 927.545593,461.297668 920.855713,463.747223 
	C925.423401,466.139099 928.964233,468.063416 932.570740,469.855560 
	C934.744690,470.935852 936.707886,472.346619 937.488953,474.602844 
	C939.097351,479.248962 942.196838,482.928833 944.815186,486.935669 
	C948.105713,491.971161 947.767761,497.409302 945.977112,502.784271 
	C944.199463,508.120026 940.879089,512.577148 936.589844,516.127808 
	C925.559143,525.258972 913.362976,531.520630 898.527466,531.492493 
	C894.232910,531.484375 891.969360,529.406494 890.657959,525.927612 
	C889.093689,521.777588 889.423401,517.339722 889.999146,513.080750 
	C890.471375,509.588501 893.645813,509.987610 896.337219,509.734192 
	C908.638306,508.575806 919.381531,503.993256 928.260620,495.180389 
	C931.478821,491.986267 930.472046,490.265930 926.920959,488.578613 
	C920.375854,485.468658 913.512268,483.782532 906.296692,483.333069 
	C903.479858,483.157593 900.643250,482.903320 897.879150,482.360962 
	C891.929565,481.193481 885.535767,478.892273 884.622620,472.604218 
	C883.176697,462.646912 883.522278,456.728912 892.667480,451.514984 
	C901.802979,446.306580 912.116089,443.761993 921.913696,440.051666 
	C922.847046,439.698242 923.814453,439.434753 925.150635,439.012329 
z"/>
</svg>